<?xml version="1.0" encoding="UTF-8" standalone="no"?>
<svg
   xmlns:dc="http://purl.org/dc/elements/1.1/"
   xmlns:cc="http://creativecommons.org/ns#"
   xmlns:rdf="http://www.w3.org/1999/02/22-rdf-syntax-ns#"
   xmlns:svg="http://www.w3.org/2000/svg"
   xmlns="http://www.w3.org/2000/svg"
   xmlns:sodipodi="http://sodipodi.sourceforge.net/DTD/sodipodi-0.dtd"
   xmlns:inkscape="http://www.inkscape.org/namespaces/inkscape"
   width="2900"
   height="2900"
   preserveAspectRatio="xMidYMid"
   version="1.1"
   viewBox="0 0 296.96 297.03031"
   id="svg9175"
   sodipodi:docname="azure.svg"
   inkscape:version="0.92.1 r15371">
  <metadata
     id="metadata9181">
    <rdf:RDF>
      <cc:Work
         rdf:about="">
        <dc:format>image/svg+xml</dc:format>
        <dc:type
           rdf:resource="http://purl.org/dc/dcmitype/StillImage" />
        <dc:title></dc:title>
      </cc:Work>
    </rdf:RDF>
  </metadata>
  <defs
     id="defs9179" />
  <sodipodi:namedview
     pagecolor="#ffffff"
     bordercolor="#666666"
     borderopacity="1"
     objecttolerance="10"
     gridtolerance="10"
     guidetolerance="10"
     inkscape:pageopacity="0"
     inkscape:pageshadow="2"
     inkscape:window-width="2560"
     inkscape:window-height="1377"
     id="namedview9177"
     showgrid="false"
     inkscape:zoom="0.0944"
     inkscape:cx="1250"
     inkscape:cy="1250"
     inkscape:window-x="-8"
     inkscape:window-y="-8"
     inkscape:window-maximized="1"
     inkscape:current-layer="svg9175" />
  <path
     d="m 172.48,159.31566 c -6.4,0 -12,3.999 -15.2,9.6 h -94.4 c -16,0 -28.8,-13.6 -28.8,-29.6 0,-16 12.8,-29.6 28.8,-29.6 h 13.6 c 0,-3.2 1.6,-6.4 2.4,-9.6 0.8,-0.800006 0.8,-2.400006 1.6,-3.200006 6.4,-12 19.2,-20.000002 33.6,-20.000002 12.8,0 24,6.400002 31.2,16.000002 4,-1.6 8,-3.2 12.8,-4 -8.8,-15.200002 -24.8,-24.800002 -44,-24.800002 -21.6,0 -40,13.6 -48,32.800002 h -3.2 c -23.2,0 -42.4,19.200006 -42.4,43.200006 0,24 19.2,42.4 42.4,42.4 h 95.2 c 2.4,5.6 8,9.6 15.2,9.6 8.801,0 16,-7.2 16,-16.8 0,-9.6 -7.2,-16 -16.8,-16 z m 52.8,-32.801 c -9.6,-19.2 -29.6,-32.800006 -52,-32.800006 -28,0 -51.2,20.000006 -56.8,46.400006 -13.6,1.6 -25.6,8.8 -32.8,19.2 h 69.6 c 4.8,-6.4 12.001,-9.6 20,-9.6 14.4,0 25.6,12 25.6,26.4 0,14.4 -12,26.4 -25.6,26.4 -8,0 -15.2,-4 -20,-9.6 h -77.6 c 3.2,22.4 22.4,40 44.8,40 h 104 c 28.8,0 52,-23.2 52,-52.8 0,-29.6 -23.2,-52.8 -51.2,-53.6 z"
     id="path9173"
     inkscape:connector-curvature="0"
     style="fill:#008cdb;stroke:#ffffff;stroke-width:38.92121124;stroke-miterlimit:4;stroke-dasharray:none;stroke-opacity:1;paint-order:stroke fill markers" />
</svg>
