<svg width="350" height="350" enable-background="new" version="1.0" viewBox="0 0 307.61719 230.71289" xmlns="http://www.w3.org/2000/svg" xmlns:xlink="http://www.w3.org/1999/xlink">
 <defs>
  <linearGradient id="linearGradient35488">
   <stop offset="0"/>
   <stop stop-opacity="0" offset="1"/>
  </linearGradient>
  <radialGradient id="radialGradient5348" cx="28.915" cy="40.304" r="15.468" gradientTransform="matrix(1 0 0 .34286 0 25.618)" gradientUnits="userSpaceOnUse" xlink:href="#linearGradient35488"/>
  <linearGradient id="linearGradient5350" x1="31.188" x2="29.875" y1="18.875" y2="34.375" gradientUnits="userSpaceOnUse">
   <stop stop-color="#fff" offset="0"/>
   <stop stop-color="#dadada" offset="1"/>
  </linearGradient>
  <radialGradient id="radialGradient5482" cx="28.019" cy="38.984" r="15.468" gradientTransform="matrix(1 0 0 .34286 0 25.618)" gradientUnits="userSpaceOnUse" xlink:href="#linearGradient35488"/>
  <filter id="filter6077" x="-.10408" y="-.30357" width="1.2082" height="1.6071">
   <feGaussianBlur stdDeviation="1.3416025"/>
  </filter>
  <clipPath id="clipPath6085">
   <path d="m16.048 28.093c0.0098 0.57668 0.19647 1.6979 0.47112 2.5774 0.58157 1.8541 1.5668 3.5727 2.9391 5.0865 1.4075 1.5531 3.1385 2.8032 5.1393 3.6898 2.1054 0.93157 4.3848 1.4075 6.7501 1.4037 2.3653-5e-3 4.6446-0.48869 6.749-1.427 2-0.89529 3.731-2.1484 5.1375-3.7055 1.3692-1.5198 2.3526-3.2411 2.9341-5.0963 0.29426-0.93835 0.47692-1.8894 0.55324-2.8453 0.07331-0.93931 0.04204-1.8835-0.09183-2.8238-0.25998-1.8356-0.89629-3.5568-1.8727-5.1276-0.89554-1.4417-2.0478-2.7045-3.4173-3.767l2e-3 -2e-3 -13.828-10.62c-0.01176-0.00978-0.02252-0.019551-0.03529-0.028344-0.909-0.69593-2.4348-0.69398-3.4317 0.00488-1.0107 0.7057-1.0918 1.8093-0.19553 2.5482 1.8998 1.4998 3.7921 3.068 5.7024 4.5676l-17.552-0.01171c-1.9947 0-3.1683 0.94792-3.4154 2.3337-0.21808 1.2228 0.74792 2.7381 2.48 2.7381 2.9566 0.0039 5.9421-0.0069 8.9092-0.01272l-15.902 11.764c-0.020527 0.01564-0.041053 0.02933-0.06158 0.04497-1.4974 1.1484-1.9832 3.0593-1.04 4.2684 0.95983 1.2296 2.9978 1.2306 4.5147 6e-3l8.6776-7.1021s-0.12511 0.95982-0.11633 1.5355z" fill="none" stroke="#954900" stroke-linecap="round" stroke-linejoin="round" stroke-width=".20763"/>
  </clipPath>
  <radialGradient id="radialGradient6101" cx="34.869" cy="44.234" r="21.276" gradientTransform="matrix(1 0 0 .80554 0 4.4643)" gradientUnits="userSpaceOnUse">
   <stop stop-color="#fff" offset="0"/>
   <stop stop-color="#fff" stop-opacity="0" offset="1"/>
  </radialGradient>
  <filter id="filter6103">
   <feGaussianBlur stdDeviation="0.19207211"/>
  </filter>
  <radialGradient id="radialGradient6121" cx="22.437" cy="13.113" r="21.804" gradientTransform="matrix(1 0 0 .80951 0 4.3545)" gradientUnits="userSpaceOnUse">
   <stop stop-color="#fff" offset="0"/>
   <stop stop-color="#fff" stop-opacity="0" offset="1"/>
  </radialGradient>
  <filter id="filter6127">
   <feGaussianBlur stdDeviation="0.098637264"/>
  </filter>
  <filter id="filter6156">
   <feGaussianBlur stdDeviation="0.93085205"/>
  </filter>
  <radialGradient id="radialGradient6166" cx="155.64" cy="58.663" r="113.01" gradientTransform="matrix(1.1062 0 0 .71608 -16.532 35.18)" gradientUnits="userSpaceOnUse">
   <stop stop-color="#eeeeec" offset="0"/>
   <stop stop-color="#eeeeec" stop-opacity="0" offset="1"/>
  </radialGradient>
  <radialGradient id="radialGradient6168" cx="26.442" cy="16.789" r="20.279" gradientTransform="matrix(1.6472 0 0 1.2679 -15.474 -5.7979)" gradientUnits="userSpaceOnUse">
   <stop stop-color="#fff" offset="0"/>
   <stop stop-color="#fff" stop-opacity="0" offset="1"/>
  </radialGradient>
  <radialGradient id="radialGradient5453" cx="32.475" cy="37.477" r="22.136" gradientTransform="matrix(1.6103 0 0 1.3081 -19.82 -14.288)" gradientUnits="userSpaceOnUse">
   <stop stop-color="#ff830a" offset="0"/>
   <stop stop-color="#d06700" offset="1"/>
  </radialGradient>
  <radialGradient id="radialGradient5463" cx="32.834" cy="188.28" r="7.4158" gradientTransform="matrix(2.0462 0 0 2.27 -34.35 -238.67)" gradientUnits="userSpaceOnUse">
   <stop stop-color="#fff" offset="0"/>
   <stop stop-color="#fff" stop-opacity="0" offset="1"/>
  </radialGradient>
  <filter id="filter5489" x="-.19357" y="-.17448" width="1.3871" height="1.349">
   <feGaussianBlur stdDeviation="1.1962095"/>
  </filter>
  <filter id="filter5467">
   <feGaussianBlur stdDeviation="0.20058598"/>
  </filter>
  <radialGradient id="radialGradient9798" cx="31.858" cy="22.97" r="5.8578" gradientTransform="matrix(1.2493 0 0 .91227 -7.9428 2.2083)" gradientUnits="userSpaceOnUse">
   <stop stop-color="#1064aa" offset="0"/>
   <stop stop-color="#0d528b" offset="1"/>
  </radialGradient>
 </defs>
 <g transform="translate(0 -92.383)" display="none">
  <g fill="#eeeeec">
   <rect x="20" y="20" width="256" height="256" display="inline" enable-background="accumulate"/>
   <rect x="296.06" y="39.996" width="48" height="48" display="inline" enable-background="accumulate"/>
   <rect x="303" y="116" width="32" height="32" display="inline" enable-background="accumulate"/>
   <rect x="303" y="167.06" width="22" height="22" display="inline" enable-background="accumulate"/>
   <rect x="303" y="209" width="16" height="16" display="inline" enable-background="accumulate"/>
   <rect x="301.96" y="165.95" width="24" height="24" display="inline" enable-background="accumulate"/>
  </g>
  <text id="context" x="21" y="-18.999996" display="inline" enable-background="new" fill="#000000" font-family="'Trebuchet MS'" style="line-height:0%" xml:space="preserve"><tspan x="21" y="-18.999996" font-size="20px" style="line-height:1.25">apps</tspan></text>
  <text id="icon-name" x="159" y="-18.999996" display="inline" enable-background="new" fill="#000000" font-family="'Trebuchet MS'" style="line-height:0%" xml:space="preserve"><tspan x="159" y="-18.999996" font-size="20px" style="line-height:1.25">blender</tspan></text>
 </g>
 <g transform="translate(0 -92.383)">
  <g transform="matrix(5.4777 0 0 5.4777 8.3253 69.049)">
   <g>
    <ellipse transform="matrix(.64031 0 0 .69198 12.734 11.877)" cx="28.019" cy="38.984" rx="15.468" ry="5.3033" enable-background="accumulate" fill="url(#radialGradient5482)"/>
    <ellipse transform="matrix(1.2743 0 0 1.3771 -7.5691 -16.702)" cx="28.019" cy="38.984" rx="15.468" ry="5.3033" enable-background="accumulate" fill="url(#radialGradient5348)" filter="url(#filter6077)" opacity=".78378"/>
    <path id="path5338" d="m16.048 28.093c0.0098 0.57668 0.19647 1.6979 0.47112 2.5774 0.58157 1.8541 1.5668 3.5727 2.9391 5.0865 1.4075 1.5531 3.1385 2.8032 5.1393 3.6898 2.1054 0.93157 4.3848 1.4075 6.7501 1.4037 2.3653-5e-3 4.6446-0.48869 6.749-1.427 2-0.89529 3.731-2.1484 5.1375-3.7055 1.3692-1.5198 2.3526-3.2411 2.9341-5.0963 0.29426-0.93835 0.47692-1.8894 0.55324-2.8453 0.07331-0.93931 0.04204-1.8835-0.09183-2.8238-0.25998-1.8356-0.89629-3.5568-1.8727-5.1276-0.89554-1.4417-2.0478-2.7045-3.4173-3.767l2e-3 -2e-3 -13.828-10.62c-0.01176-0.00978-0.02252-0.019551-0.03529-0.028344-0.909-0.69593-2.4348-0.69398-3.4317 0.00488-1.0107 0.7057-1.0918 1.8093-0.19553 2.5482 1.8998 1.4998 3.7921 3.068 5.7024 4.5676l-17.552-0.01171c-1.9947 0-3.1683 0.94792-3.4154 2.3337-0.21808 1.2228 0.74792 2.7381 2.48 2.7381 2.9566 0.0039 5.9421-0.0069 8.9092-0.01272l-15.902 11.764c-0.020527 0.01564-0.041053 0.02933-0.06158 0.04497-1.4974 1.1484-1.9832 3.0593-1.04 4.2684 0.95983 1.2296 2.9978 1.2306 4.5147 6e-3l8.6776-7.1021s-0.12511 0.95982-0.11633 1.5355z" fill="url(#radialGradient5453)" fill-rule="evenodd"/>
    <ellipse transform="matrix(.82162 0 0 .83951 5.8757 3.8827)" cx="31.188" cy="25.75" rx="11.562" ry="10.125" enable-background="accumulate" fill="url(#linearGradient5350)"/>
   </g>
   <path d="m25.797 6.0268c-0.40485 5.53e-4 -0.81862 0.12569-1.0953 0.31963-7.14e-4 7.142e-4 -0.0014 0.00143-0.0021 0.00213-0.28021 0.19565-0.33686 0.36801-0.34521 0.46027-0.0083 0.092266-0.01324 0.16728 0.18966 0.33455 0.01899 0.015735 0.03747 0.032076 0.0554 0.049009 0.12426 0.10103 5.7044 4.6389 5.7044 4.6389 0.37366 0.30409 0.51584 0.81023 0.3552 1.2644-0.16064 0.45419-0.58942 0.38273-1.0712 0.38428-5.6341 0.05114-17.61 0.01918-17.61 0.01918-0.95297 6.38e-4 -2.3473 0.51679-2.4136 1.5858-0.063562 1.0249 0.90931 1.4575 1.5783 1.4575l8.8304-0.01705c0.48836-5.91e-4 0.92286 0.22153 1.0805 0.68376 0.15761 0.46223 0.0033 0.53156-0.38366 0.82944l-15.901 12.206c-0.00142 0.0014-0.00284 0.0028-0.00426 0.0043-0.064038 0.04879-0.084772 0.06226-0.061795 0.04476-0.55368 0.42462-0.89611 0.98072-1.0186 1.4767-0.12245 0.49598-0.04659 0.88255 0.18752 1.1826 0.47883 0.61341 1.8578 0.8205 2.9864-0.09061l8.6727-7.098c0.36196-0.29575 0.77937-0.34061 1.1877-0.11317 0.40834 0.22744 0.54812 0.59269 0.48724 1.0561 0 0-0.1125 0.98004-0.10655 1.3702 0.19236 2.6364 1.4483 5.0034 3.1154 7.0031 2.8777 3.1728 6.9378 4.6447 11.131 4.8083 4.2034-0.04394 8.3184-1.795 11.175-4.8909 5.2189-6.3859 3.8092-13.408-1.8799-18.037-4.4964-3.6588-9.2133-7.0812-13.821-10.62-0.0043-0.00352-0.0086-0.00707-0.01279-0.010651-0.0072-0.00489-0.01427-0.00987-0.02131-0.014921-0.21058-0.16123-0.58468-0.28826-0.98877-0.2877z" fill="none" filter="url(#filter6103)" opacity=".48571" stroke="url(#radialGradient6101)" stroke-width=".36512"/>
   <path d="m25.825 24.904c0.07942-1.4516 0.78844-2.733 1.8543-3.6402 1.0489-0.89177 2.4574-1.4363 3.9959-1.4363 1.5376 0 2.9461 0.5445 3.9947 1.4363 1.067 0.90716 1.7752 2.1876 1.8555 3.6392 0.08231 1.494-0.51489 2.8812-1.5616 3.9086-1.067 1.0466-2.5884 1.7037-4.2887 1.7037-1.7012 0-3.2226-0.65705-4.2896-1.7037-1.0478-1.0274-1.6429-2.4146-1.5606-3.9076z" fill="url(#radialGradient9798)" fill-rule="evenodd"/>
   <path d="m24.594 7.1875l5.7188 4.6562c0.49558 0.40491 0.14049 1.2626-0.78125 1.25-5.6341 0.05114-17.375-0.03125-17.375-0.03125-0.83333 0-2.3438 0.57797-2.3438 1.6875s0.6748 1.2568 1.3438 1.2509h8.8125c1.4552 0.03051 1.6172 1.2274 0.6875 2.0303l-15.875 12.219c-0.00142 0.0014-0.029829-0.0014-0.03125 0-0.064037 0.04879-0.054226 0.04875-0.03125 0.03125-0.55368 0.42462-0.90879 1.004-1.0312 1.5-0.12245 0.49598-0.04661 0.85615 0.1875 1.1562 0.47883 0.61341 1.7334 0.31292 2.8621-0.59819 1e-7 1e-6 8.5679-7.0496 8.5679-7.0496 0.8255-0.68368 2.5694-0.11832 2.4183 1.3848-0.22559 2.2433 0.09704 3.3212 0.9221 5.0522 2.2754 4.7738 9.8328-12.334 26.249-10.695-0.84785-1.4876-2.0362-3.1553-3.5312-4.3719-4.4964-3.6588-13.755-10.537-13.755-10.537-1.3634-1.0143-4.2841-0.17134-3.0142 1.0647z" fill="url(#radialGradient6168)" fill-rule="evenodd" opacity=".52"/>
   <path d="m16.048 28.093c0.0098 0.57668 0.19647 1.6979 0.47112 2.5774 0.58157 1.8541 1.5668 3.5727 2.9391 5.0865 1.4075 1.5531 3.1385 2.8032 5.1393 3.6898 2.1054 0.93157 4.3848 1.4075 6.7501 1.4037 2.3653-5e-3 4.6446-0.48869 6.749-1.427 2-0.89529 3.731-2.1484 5.1375-3.7055 1.3692-1.5198 2.3526-3.2411 2.9341-5.0963 0.29426-0.93835 0.47692-1.8894 0.55324-2.8453 0.07331-0.93931 0.04204-1.8835-0.09183-2.8238-0.25998-1.8356-0.89629-3.5568-1.8727-5.1276-0.89554-1.4417-2.0478-2.7045-3.4173-3.767l2e-3 -2e-3 -13.828-10.62c-0.01176-0.00978-0.02252-0.019551-0.03529-0.028344-0.909-0.69593-2.4348-0.69398-3.4317 0.00488-1.0107 0.7057-1.0918 1.8093-0.19553 2.5482 1.8998 1.4998 3.7921 3.068 5.7024 4.5676l-17.552-0.01171c-1.9947 0-3.1683 0.94792-3.4154 2.3337-0.21808 1.2228 0.74792 2.7381 2.48 2.7381 2.9566 0.0039 5.9421-0.0069 8.9092-0.01272l-15.902 11.764c-0.020527 0.01564-0.041053 0.02933-0.06158 0.04497-1.4974 1.1484-1.9832 3.0593-1.04 4.2684 0.95983 1.2296 2.9978 1.2306 4.5147 6e-3l8.6776-7.1021s-0.12511 0.95982-0.11633 1.5355z" clip-path="url(#clipPath6085)" fill="none" filter="url(#filter5467)" opacity=".69792" stroke="#954900" stroke-linecap="round" stroke-linejoin="round" stroke-width=".73024"/>
   <path transform="translate(-.10382 .10382)" d="m25.795 5.3223c-0.53856 7.421e-4 -1.0862 0.15524-1.5 0.44531a0.43281 0.43281 0 0 1 0 0.00195c-0.42307 0.29541-0.60571 0.63105-0.62891 0.9375-0.0232 0.30645 0.09921 0.6217 0.46094 0.91992 1.9028 1.5023 3.7918 3.0698 5.6934 4.5625a0.43281 0.43281 0 0 1 -0.26758 0.77344l-17.551-0.01172c-0.92877 0-1.6267 0.21988-2.1113 0.56641-0.48462 0.34652-0.77314 0.8171-0.87891 1.4102-0.16843 0.94444 0.57501 2.2285 2.0547 2.2285 2.955 0.0039 5.9425-0.0079 8.9102-0.01367a0.43281 0.43281 0 0 1 0.25781 0.78125l-15.902 11.764c-0.033643 0.02531-0.054583 0.03955-0.056641 0.04102-1.3491 1.0347-1.7238 2.6823-0.96094 3.6602 0.77674 0.99504 2.5292 1.0413 3.8984-0.0625l0.00195-2e-3 8.6758-7.0996a0.43281 0.43281 0 0 1 0.70312 0.38867s-0.11905 0.96836-0.11133 1.4746c0.0086 0.49365 0.19129 1.6209 0.45117 2.4531h-2e-3c0.56265 1.7938 1.5157 3.4564 2.8477 4.9258 1.3665 1.5079 3.0466 2.721 4.9941 3.584 2.0496 0.9069 4.2674 1.3708 6.5742 1.3672 2.3062-0.0049 4.524-0.47563 6.5723-1.3887 1.9467-0.87142 3.627-2.0888 4.9922-3.5996 1.3294-1.4757 2.281-3.1403 2.8438-4.9355 0.2845-0.90721 0.46133-1.8271 0.53516-2.75v-2e-3c0.07062-0.90672 0.04151-1.8196-0.08789-2.7285-0.25149-1.7756-0.86642-3.437-1.8125-4.959-0.86749-1.3965-1.9853-2.6216-3.3164-3.6543a0.43281 0.43281 0 0 1 -0.0332 -0.02734 0.43281 0.43281 0 0 1 -0.0039 -0.0039l-13.787-10.588a0.43281 0.43281 0 0 1 -0.01367 -0.011719c-0.0328-0.027279-0.03415-0.026682-0.0039-0.00586a0.43281 0.43281 0 0 1 -0.01758 -0.011719c-0.36104-0.2764-0.88091-0.43043-1.4199-0.42969z" fill="none" filter="url(#filter6127)" opacity=".43678" stroke="url(#radialGradient6121)" stroke-linecap="round" stroke-linejoin="round" stroke-width=".18256" xlink:href="#path5338"/>
   <path transform="matrix(.18579 0 0 .18579 -2.4226 -1.6311)" d="m153.41 38.031c-5.5652 0.01098-10.692 2.5329-9.5 6.0625 1.4988-4.1205 12.314-5.8701 18.062-1.5938 0 0 50.714 37.677 75.344 57.719 7.4962 6.0998 13.555 14.255 18.094 21.844 0.41707 0.0374 0.83082 0.0519 1.25 0.0937-4.6442-8.1484-11.154-17.274-19.344-23.937-24.63-20.042-75.344-57.719-75.344-57.719-2.3338-1.7362-5.5234-2.4747-8.5625-2.4688zm24.438 37.344c-0.52291 1.7665-2.397 3.3526-5.3438 3.3125-30.862 0.28012-95.188-0.15625-95.188-0.15625-4.5647-1e-6 -12.844 3.1411-12.844 9.2188 0 0.37985 0.03453 0.75399 0.0625 1.0938 0.78105-5.4771 8.4526-8.3125 12.781-8.3125 0 0 64.325 0.43636 95.188 0.15625 4.0631 0.05534 6.1116-2.9706 5.3438-5.3125zm-50.906 25.469c-0.30408 1.6603-1.3288 3.409-3.0625 4.9062l-86.969 66.906c-0.0078 8e-3 -0.14847-8e-3 -0.15625 0-0.35078 0.26728-0.31336 0.28336-0.1875 0.1875-3.0329 2.3259-4.9542 5.5019-5.625 8.2188-0.30637 1.2409-0.37595 2.3112-0.25 3.2812 0.05246-0.4134 0.13821-0.82845 0.25-1.2812 0.6708-2.7168 2.5921-5.8928 5.625-8.2188-0.12586 0.0959-0.16328 0.0798 0.1875-0.1875 0.0078-8e-3 0.14847 8e-3 0.15625 0l86.969-66.906c2.4523-2.1179 3.5067-4.7419 3.0625-6.9062zm-19.125 52.344c-0.30179 3.0315-0.43687 5.6583-0.375 8.0625 0.026-1.8868 0.1482-3.901 0.375-6.1562 0.067-0.66645 0.0608-1.308 0-1.9062z" fill="url(#radialGradient6166)" fill-rule="evenodd" filter="url(#filter6156)"/>
   <path transform="matrix(.18256 0 0 .18256 -1.9585 -1.2719)" d="m29.75 176c-2.615 11.181 0.64113 17.715 14 16.25-9.1308-1.2959-13.534-6.9556-14-16.25z" fill="url(#radialGradient5463)" fill-rule="evenodd" filter="url(#filter5489)" opacity=".54819"/>
  </g>
 </g>
</svg>
