<svg width="2500" height="2500" preserveAspectRatio="xMidYMid" version="1.1" viewBox="0 0 360.97011 361" xmlns="http://www.w3.org/2000/svg">
 <g transform="translate(52.485 .456)">
  <path d="m127.84 360.09-104.18-28.922-23.217-260.4h255.11l-23.241 260.36z" fill="#264de4"/>
  <path d="m212.42 314.55 19.86-222.49h-104.28v245.89z" fill="#2965f1"/>
  <path d="m53.669 188.64 2.862 31.937h71.469v-31.937zm-5.752-64.641 2.903 31.937h77.18v-31.937zm80.083 147.58l-0.14 0.037-35.568-9.604-2.274-25.471h-32.06l4.474 50.146 65.421 18.16 0.147-0.04z" fill="#ebebeb"/>
  <path d="m60.484 0h38.68v16.176h-22.504v16.176h22.506v16.175h-38.682zm46.417 0h38.681v14.066h-22.505v2.813h22.505v32.352h-38.68v-14.771h22.505v-2.813h-22.507v-31.647zm46.418 0h38.681v14.066h-22.505v2.813h22.505v32.352h-38.681v-14.771h22.505v-2.813h-22.504v-31.647z"/>
  <path d="m202.13 188.64 5.765-64.641h-80.002v31.937h45.002l-2.906 32.704h-42.096v31.937h39.327l-3.708 41.42-35.62 9.614v33.226l65.473-18.145 0.48-5.396 7.506-84.08z" fill="#fff"/>
 </g>
</svg>
