<?xml version="1.0" encoding="UTF-8" standalone="no"?>
<svg
   xmlns:dc="http://purl.org/dc/elements/1.1/"
   xmlns:cc="http://creativecommons.org/ns#"
   xmlns:rdf="http://www.w3.org/1999/02/22-rdf-syntax-ns#"
   xmlns:svg="http://www.w3.org/2000/svg"
   xmlns="http://www.w3.org/2000/svg"
   xmlns:sodipodi="http://sodipodi.sourceforge.net/DTD/sodipodi-0.dtd"
   xmlns:inkscape="http://www.inkscape.org/namespaces/inkscape"
   width="165"
   height="165"
   version="1.2"
   viewBox="0 0 123.7493 123.74958"
   id="svg6411"
   sodipodi:docname="javascript.svg"
   inkscape:version="0.92.1 r15371">
  <metadata
     id="metadata6415">
    <rdf:RDF>
      <cc:Work
         rdf:about="">
        <dc:format>image/svg+xml</dc:format>
        <dc:type
           rdf:resource="http://purl.org/dc/dcmitype/StillImage" />
      </cc:Work>
    </rdf:RDF>
  </metadata>
  <sodipodi:namedview
     pagecolor="#ffffff"
     bordercolor="#666666"
     borderopacity="1"
     objecttolerance="10"
     gridtolerance="10"
     guidetolerance="10"
     inkscape:pageopacity="0"
     inkscape:pageshadow="2"
     inkscape:window-width="2560"
     inkscape:window-height="1377"
     id="namedview6413"
     showgrid="false"
     inkscape:zoom="1.430303"
     inkscape:cx="82.5"
     inkscape:cy="82.5"
     inkscape:window-x="-8"
     inkscape:window-y="-8"
     inkscape:window-maximized="1"
     inkscape:current-layer="svg6411" />
  <defs
     id="defs6389">
    <clipPath
       id="a">
      <path
         d="m239.03 226.6-42.13 24.317c-1.578 0.91-2.546 2.59-2.546 4.406v48.668c0 1.817 0.968 3.496 2.546 4.406l42.133 24.336c1.575 0.907 3.517 0.907 5.09 0l42.126-24.336c1.57-0.91 2.54-2.59 2.54-4.406v-48.668c0-1.816-0.97-3.496-2.55-4.406l-42.12-24.317c-0.79-0.453-1.67-0.68-2.55-0.68s-1.76 0.227-2.55 0.68"
         id="path6380" />
    </clipPath>
    <clipPath
       id="c">
      <path
         d="m195.4 307.09c0.403 0.523 0.907 0.976 1.5 1.316l36.14 20.875 6.02 3.46c0.9 0.52 1.926 0.74 2.934 0.665 0.336-0.027 0.672-0.09 1-0.183l44.434-81.36c-0.34-0.37-0.738-0.68-1.184-0.94l-27.586-15.93-14.582-8.39c-0.414-0.24-0.863-0.41-1.32-0.53z"
         id="path6383" />
    </clipPath>
    <clipPath
       id="e">
      <path
         d="m241.07 225.95c-0.707 0.07-1.398 0.29-2.035 0.652l-42.01 24.247 45.3 82.51c0.63-0.09 1.25-0.3 1.81-0.624l42.13-24.336c1.3-0.754 2.19-2.03 2.46-3.476l-46.18-78.89c-0.34-0.067-0.68-0.102-1.03-0.102-0.14 0-0.28 7e-3 -0.42 0.02"
         id="path6386" />
    </clipPath>
  </defs>
  <g
     transform="translate(-101.39,-139.5)"
     id="g6403"
     style="fill:#e0cc25;fill-opacity:1">
    <g
       transform="translate(-78.306,-78.296)"
       clip-path="url(#a)"
       id="g6393"
       style="fill:#e0cc25;fill-opacity:1">
      <path
         d="M 331.36,246.79 212.64,188.6 151.77,312.77 270.48,370.963 Z"
         id="path6391"
         inkscape:connector-curvature="0"
         style="fill:#e0cc25;fill-opacity:1" />
    </g>
    <g
       transform="translate(-78.306,-78.296)"
       clip-path="url(#c)"
       id="g6397"
       style="fill:#e0cc25;fill-opacity:1">
      <path
         d="m 144.07,264 83.825,113.45 110.86,-81.906 -83.83,-113.45 z"
         id="path6395"
         inkscape:connector-curvature="0"
         style="fill:#e0cc25;fill-opacity:1" />
    </g>
    <g
       transform="translate(-78.306,-78.296)"
       clip-path="url(#e)"
       id="g6401"
       style="fill:#e0cc25;fill-opacity:1">
      <path
         d="m 197.02,225.93 v 107.43 h 91.683 V 225.93 Z"
         id="path6399"
         inkscape:connector-curvature="0"
         style="fill:#e0cc25;fill-opacity:1" />
    </g>
  </g>
  <g
     transform="translate(-95.348,-39.537)"
     id="g6409"
     style="fill:#ffffff">
    <path
       d="m 157.24,155.92 c -1.46,0 -2.91,-0.383 -4.19,-1.12 l -13.337,-7.896 c -1.992,-1.114 -1.02,-1.508 -0.363,-1.735 2.656,-0.93 3.195,-1.14 6.03,-2.75 0.298,-0.17 0.688,-0.11 0.993,0.07 l 10.246,6.08 c 0.37,0.2 0.895,0.2 1.238,0 l 39.95,-23.06 c 0.37,-0.21 0.61,-0.64 0.61,-1.08 v -46.1 c 0,-0.46 -0.24,-0.87 -0.618,-1.1 l -39.934,-23.04 c -0.37,-0.22 -0.86,-0.22 -1.23,0 l -39.926,23.04 c -0.387,0.22 -0.633,0.65 -0.633,1.09 v 46.1 c 0,0.44 0.24,0.86 0.62,1.07 l 10.94,6.32 c 5.94,2.97 9.57,-0.53 9.57,-4.05 v -45.5 c 0,-0.65 0.51,-1.15 1.16,-1.15 h 5.06 c 0.63,0 1.15,0.5 1.15,1.15 v 45.52 c 0,7.92 -4.32,12.47 -11.83,12.47 -2.31,0 -4.13,0 -9.21,-2.5 l -10.48,-6.04 c -2.59,-1.5 -4.19,-4.3 -4.19,-7.29 v -46.1 c 0,-3 1.6,-5.8 4.19,-7.28 l 39.99,-23.07 c 2.53,-1.43 5.89,-1.43 8.4,0 l 39.94,23.08 c 2.58,1.49 4.19,4.28 4.19,7.28 v 46.1 c 0,2.99 -1.61,5.78 -4.19,7.28 l -39.94,23.07 c -1.28,0.74 -2.73,1.12 -4.21,1.12"
       id="path6405"
       inkscape:connector-curvature="0" />
    <path
       d="m 169.58,124.16 c -17.48,0 -21.145,-8.024 -21.145,-14.754 0,-0.64 0.516,-1.15 1.157,-1.15 h 5.16 c 0.57,0 1.05,0.415 1.14,0.978 0.78,5.258 3.1,7.91 13.67,7.91 8.42,0 12,-1.902 12,-6.367 0,-2.57 -1.02,-4.48 -14.1,-5.76 -10.94,-1.08 -17.7,-3.49 -17.7,-12.24 0,-8.06 6.8,-12.86 18.19,-12.86 12.79,0 19.13,4.44 19.93,13.98 0.03,0.33 -0.09,0.65 -0.31,0.89 -0.22,0.23 -0.53,0.37 -0.85,0.37 h -5.19 c -0.54,0 -1.01,-0.38 -1.12,-0.9 -1.25,-5.53 -4.27,-7.3 -12.48,-7.3 -9.19,0 -10.26,3.2 -10.26,5.6 0,2.91 1.26,3.76 13.66,5.4 12.28,1.63 18.11,3.93 18.11,12.56 0,8.7 -7.26,13.69 -19.92,13.69"
       id="path6407"
       inkscape:connector-curvature="0" />
  </g>
</svg>
