<svg width="165" height="165" version="1.2" viewBox="0 0 123.7493 123.74958" xmlns="http://www.w3.org/2000/svg">
 <defs>
  <clipPath id="a">
   <path d="m239.03 226.6-42.13 24.317c-1.578 0.91-2.546 2.59-2.546 4.406v48.668c0 1.817 0.968 3.496 2.546 4.406l42.133 24.336c1.575 0.907 3.517 0.907 5.09 0l42.126-24.336c1.57-0.91 2.54-2.59 2.54-4.406v-48.668c0-1.816-0.97-3.496-2.55-4.406l-42.12-24.317c-0.79-0.453-1.67-0.68-2.55-0.68s-1.76 0.227-2.55 0.68"/>
  </clipPath>
  <linearGradient id="b" x1="-.348" x2="1.251" gradientTransform="matrix(-38.065,77.652,-77.652,-38.065,258.72,244.63)" gradientUnits="userSpaceOnUse">
   <stop stop-color="#3E863D" offset=".3"/>
   <stop stop-color="#55934F" offset=".5"/>
   <stop stop-color="#5AAD45" offset=".8"/>
  </linearGradient>
  <clipPath id="c">
   <path d="m195.4 307.09c0.403 0.523 0.907 0.976 1.5 1.316l36.14 20.875 6.02 3.46c0.9 0.52 1.926 0.74 2.934 0.665 0.336-0.027 0.672-0.09 1-0.183l44.434-81.36c-0.34-0.37-0.738-0.68-1.184-0.94l-27.586-15.93-14.582-8.39c-0.414-0.24-0.863-0.41-1.32-0.53z"/>
  </clipPath>
  <linearGradient id="d" x1="-.456" x2=".582" gradientTransform="matrix(106.81,-78.917,78.917,106.81,235.19,285.39)" gradientUnits="userSpaceOnUse">
   <stop stop-color="#3E863D" offset=".57"/>
   <stop stop-color="#619857" offset=".72"/>
   <stop stop-color="#76AC64" offset="1"/>
  </linearGradient>
  <clipPath id="e">
   <path d="m241.07 225.95c-0.707 0.07-1.398 0.29-2.035 0.652l-42.01 24.247 45.3 82.51c0.63-0.09 1.25-0.3 1.81-0.624l42.13-24.336c1.3-0.754 2.19-2.03 2.46-3.476l-46.18-78.89c-0.34-0.067-0.68-0.102-1.03-0.102-0.14 0-0.28 7e-3 -0.42 0.02"/>
  </clipPath>
  <linearGradient id="f" x1=".043" x2=".984" gradientTransform="matrix(97.417,0,0,97.417,192.86,279.65)" gradientUnits="userSpaceOnUse">
   <stop stop-color="#6BBF47" offset=".16"/>
   <stop stop-color="#79B461" offset=".38"/>
   <stop stop-color="#75AC64" offset=".47"/>
   <stop stop-color="#659E5A" offset=".7"/>
   <stop stop-color="#3E863D" offset=".9"/>
  </linearGradient>
 </defs>
 <g transform="translate(-101.39 -139.5)">
  <g transform="translate(-78.306 -78.296)" clip-path="url(#a)">
   <path d="m331.36 246.79-118.72-58.19-60.87 124.17 118.71 58.193z" fill="url(#b)"/>
  </g>
  <g transform="translate(-78.306 -78.296)" clip-path="url(#c)">
   <path d="m144.07 264 83.825 113.45 110.86-81.906-83.83-113.45z" fill="url(#d)"/>
  </g>
  <g transform="translate(-78.306 -78.296)" clip-path="url(#e)">
   <path d="m197.02 225.93v107.43h91.683v-107.43z" fill="url(#f)"/>
  </g>
 </g>
 <g transform="translate(-95.348 -39.537)" fill="#fff">
  <path d="m157.24 155.92c-1.46 0-2.91-0.383-4.19-1.12l-13.337-7.896c-1.992-1.114-1.02-1.508-0.363-1.735 2.656-0.93 3.195-1.14 6.03-2.75 0.298-0.17 0.688-0.11 0.993 0.07l10.246 6.08c0.37 0.2 0.895 0.2 1.238 0l39.95-23.06c0.37-0.21 0.61-0.64 0.61-1.08v-46.1c0-0.46-0.24-0.87-0.618-1.1l-39.934-23.04c-0.37-0.22-0.86-0.22-1.23 0l-39.926 23.04c-0.387 0.22-0.633 0.65-0.633 1.09v46.1c0 0.44 0.24 0.86 0.62 1.07l10.94 6.32c5.94 2.97 9.57-0.53 9.57-4.05v-45.5c0-0.65 0.51-1.15 1.16-1.15h5.06c0.63 0 1.15 0.5 1.15 1.15v45.52c0 7.92-4.32 12.47-11.83 12.47-2.31 0-4.13 0-9.21-2.5l-10.48-6.04c-2.59-1.5-4.19-4.3-4.19-7.29v-46.1c0-3 1.6-5.8 4.19-7.28l39.99-23.07c2.53-1.43 5.89-1.43 8.4 0l39.94 23.08c2.58 1.49 4.19 4.28 4.19 7.28v46.1c0 2.99-1.61 5.78-4.19 7.28l-39.94 23.07c-1.28 0.74-2.73 1.12-4.21 1.12"/>
  <path d="m169.58 124.16c-17.48 0-21.145-8.024-21.145-14.754 0-0.64 0.516-1.15 1.157-1.15h5.16c0.57 0 1.05 0.415 1.14 0.978 0.78 5.258 3.1 7.91 13.67 7.91 8.42 0 12-1.902 12-6.367 0-2.57-1.02-4.48-14.1-5.76-10.94-1.08-17.7-3.49-17.7-12.24 0-8.06 6.8-12.86 18.19-12.86 12.79 0 19.13 4.44 19.93 13.98 0.03 0.33-0.09 0.65-0.31 0.89-0.22 0.23-0.53 0.37-0.85 0.37h-5.19c-0.54 0-1.01-0.38-1.12-0.9-1.25-5.53-4.27-7.3-12.48-7.3-9.19 0-10.26 3.2-10.26 5.6 0 2.91 1.26 3.76 13.66 5.4 12.28 1.63 18.11 3.93 18.11 12.56 0 8.7-7.26 13.69-19.92 13.69"/>
 </g>
</svg>
