<svg width="2500" height="2500" version="1.1" viewBox="0 0 1200 1200" xmlns="http://www.w3.org/2000/svg">
 <path d="M600 0l530.3 300v600L600 1200 69.7 900V300z" fill="#fff"/>
 <path d="m1036.4 879.3-418.1 236.5v-184.2l260.5-143.3zm28.6-25.9v-494.6l-153 88.3v317.9zm-901.5 25.9 418.1 236.5v-184.2l-260.5-143.3zm-28.6-25.9v-494.6l153 88.3v317.9zm17.9-526.6 428.8-242.6v178.1l-274.7 151.1-2.1 1.2zm894.3 0-428.8-242.6v178.1l274.7 151.1 2.1 1.2z" fill="#8ed6fb"/>
 <path d="m581.65 897.8-257-141.3v-280l257 148.4v272.9m36.7 0 257-141.3v-280l-257 148.4v272.9m-276.3-453.7 258-141.9 258 141.9-258 149-258-149" fill="#1c78c0"/>
</svg>
