<?xml version="1.0" encoding="UTF-8" standalone="no"?>
<!-- Created with Inkscape (http://www.inkscape.org/) -->

<svg
   xmlns:dc="http://purl.org/dc/elements/1.1/"
   xmlns:cc="http://creativecommons.org/ns#"
   xmlns:rdf="http://www.w3.org/1999/02/22-rdf-syntax-ns#"
   xmlns:svg="http://www.w3.org/2000/svg"
   xmlns="http://www.w3.org/2000/svg"
   xmlns:sodipodi="http://sodipodi.sourceforge.net/DTD/sodipodi-0.dtd"
   xmlns:inkscape="http://www.inkscape.org/namespaces/inkscape"
   width="72.931473mm"
   height="11.85366mm"
   viewBox="0 0 72.931473 11.85366"
   version="1.1"
   id="svg5353"
   inkscape:version="0.92.1 r15371"
   sodipodi:docname="logo-text.svg">
  <defs
     id="defs5347" />
  <sodipodi:namedview
     id="base"
     pagecolor="#ffffff"
     bordercolor="#666666"
     borderopacity="1.0"
     inkscape:pageopacity="0.0"
     inkscape:pageshadow="2"
     inkscape:zoom="2.8"
     inkscape:cx="207.51491"
     inkscape:cy="76.928811"
     inkscape:document-units="mm"
     inkscape:current-layer="layer1"
     showgrid="false"
     inkscape:window-width="2560"
     inkscape:window-height="1377"
     inkscape:window-x="-8"
     inkscape:window-y="-8"
     inkscape:window-maximized="1" />
  <metadata
     id="metadata5350">
    <rdf:RDF>
      <cc:Work
         rdf:about="">
        <dc:format>image/svg+xml</dc:format>
        <dc:type
           rdf:resource="http://purl.org/dc/dcmitype/StillImage" />
        <dc:title></dc:title>
      </cc:Work>
    </rdf:RDF>
  </metadata>
  <g
     inkscape:label="Layer 1"
     inkscape:groupmode="layer"
     id="layer1"
     transform="translate(409.90621,232.80189)">
    <path
       inkscape:connector-curvature="0"
       style="font-style:normal;font-variant:normal;font-weight:900;font-stretch:normal;font-size:16.93333244px;line-height:5.25;font-family:Montserrat;-inkscape-font-specification:'Montserrat Heavy';stroke-width:0.26458332;fill:#e1e1e1;fill-opacity:1"
       d="m -346.82995,-232.80177 v 11.85354 h 3.90001 v -8.83925 h 0.0284 0.17157 5.53506 v -3.01429 z m 4.1,4.40283 v 2.8789 h 4.84105 v -2.8789 z m 0,4.43643 v 3.01428 h 5.75521 v -3.01428 z"
       id="path4519" />
    <path
       inkscape:connector-curvature="0"
       style="font-style:normal;font-variant:normal;font-weight:900;font-stretch:normal;font-size:16.93333244px;line-height:5.25;font-family:Montserrat;-inkscape-font-specification:'Montserrat Heavy';stroke-width:0.26458332;fill:#e1e1e1;fill-opacity:1"
       d="m -358.28094,-232.80177 v 11.85354 h 3.99614 v -3.09903 -8.75451 z m 4.19613,8.75451 v 3.09903 h 5.15111 v -3.09903 z"
       id="path4517"
       inkscape:label="L" />
    <path
       inkscape:connector-curvature="0"
       style="font-style:normal;font-variant:normal;font-weight:900;font-stretch:normal;font-size:16.93333244px;line-height:5.25;font-family:Montserrat;-inkscape-font-specification:'Montserrat Heavy';stroke-width:0.26458332;fill:#e1e1e1;fill-opacity:1"
       d="m -369.73192,-232.80177 v 11.85354 h 3.99614 v -3.09903 -8.75451 z m 4.19613,8.75451 v 3.09903 h 5.15111 v -3.09903 z"
       id="path4515"
       inkscape:label="L" />
    <path
       inkscape:connector-curvature="0"
       style="font-style:normal;font-variant:normal;font-weight:900;font-stretch:normal;font-size:16.93333244px;line-height:5.25;font-family:Montserrat;-inkscape-font-specification:'Montserrat Heavy';stroke-width:0.26458332;fill:#e1e1e1;fill-opacity:1"
       d="m -380.49663,-232.80177 -5.1816,11.85354 h 4.06435 l 3.01739,-7.8698 0.008,0.003 0.0222,-0.0579 1.15135,2.98018 h -2.08932 l -1.10381,2.87837 h 4.2938 l 0.79581,2.06603 h 4.13154 l -5.1816,-11.85354 z"
       id="path4513"
       inkscape:label="A" />
    <path
       inkscape:connector-curvature="0"
       style="font-style:normal;font-variant:normal;font-weight:900;font-stretch:normal;font-size:16.93333244px;line-height:5.25;font-family:Montserrat;-inkscape-font-specification:'Montserrat Heavy';stroke-width:0.26458332;fill:#e1e1e1;fill-opacity:1"
       d="m -397.99169,-232.80177 v 11.85354 h 3.99614 v -2.98018 -3.01428 -2.7771 h 0.19998 1.25626 c 0.54187,0 0.94811,0.12424 1.21905,0.37259 0.27093,0.23707 0.40669,0.57569 0.40669,1.01596 0,0.44027 -0.13576,0.78466 -0.40669,1.03301 -0.27094,0.23707 -0.67718,0.35554 -1.21905,0.35554 h -1.25626 v 3.01428 h 0.88367 l 2.01487,2.98018 h 4.26744 l -2.48926,-3.65766 c 0.72249,-0.37253 1.27551,-0.8747 1.65933,-1.50688 0.38383,-0.63218 0.57568,-1.3718 0.57568,-2.21847 0,-0.90311 -0.22016,-1.69306 -0.66043,-2.3704 -0.44026,-0.67733 -1.06667,-1.1968 -1.87947,-1.55804 -0.8128,-0.36125 -1.76682,-0.54209 -2.86184,-0.54209 z"
       id="path4511"
       inkscape:label="R" />
    <path
       inkscape:connector-curvature="0"
       style="font-style:normal;font-variant:normal;font-weight:900;font-stretch:normal;font-size:16.93333244px;line-height:5.25;font-family:Montserrat;-inkscape-font-specification:'Montserrat Heavy';stroke-width:0.26458332;fill:#e1e1e1;fill-opacity:1"
       d="m -409.90621,-232.80177 v 11.85354 h 3.99666 v -3.79305 -3.01429 -2.03191 h 0.19998 5.43843 v -3.01429 z m 4.19664,5.0462 v 3.01429 h 4.74442 v -3.01429 z"
       id="path4509"
       inkscape:label="F" />
  </g>
</svg>
